HIERARCHY
ROOT Hips
{
	OFFSET 0.000000 83.214638 0.000000
	CHANNELS 6 Xposition Yposition Zposition Xrotation Yrotation Zrotation
	JOINT Pelvis
	{
		OFFSET 0.000000 0.000000 0.000000
		CHANNELS 3 Xrotation Yrotation Zrotation
		JOINT LeftUpLeg
		{
			OFFSET 8.479700 -4.795502 -0.379100
			CHANNELS 3 Xrotation Yrotation Zrotation
			JOINT LeftLeg
			{
				OFFSET 0.024144 -32.555107 0.112900
				CHANNELS 3 Xrotation Yrotation Zrotation
				JOINT LeftFoot
				{
					OFFSET -0.024144 -32.638630 -3.012600
					CHANNELS 3 Xrotation Yrotation Zrotation
					JOINT LeftToeBase
					{
						OFFSET 0.970200 -13.225400 11.864200
						CHANNELS 3 Xrotation Yrotation Zrotation
						End Site
						{
							OFFSET 0.000000 12.319262 0.000000
						}
					}
					JOINT LFootTongue
					{
						OFFSET 1.142400 -1.059800 6.665200
						CHANNELS 3 Xrotation Yrotation Zrotation
						End Site
						{
							OFFSET 0.000000 12.319262 0.000000
						}
					}
				}
				JOINT LeftPantLeg
				{
					OFFSET 0.918482 -16.533964 -2.284700
					CHANNELS 3 Xrotation Yrotation Zrotation
					End Site
					{
						OFFSET 0.350399 24.744368 0.000000
					}
				}
			}
		}
		JOINT RightUpLeg
		{
			OFFSET -8.479700 -4.795502 -0.379100
			CHANNELS 3 Xrotation Yrotation Zrotation
			JOINT RightLeg
			{
				OFFSET -0.023144 -32.555092 0.112900
				CHANNELS 3 Xrotation Yrotation Zrotation
				JOINT RightFoot
				{
					OFFSET 0.023144 -32.638641 -3.012700
					CHANNELS 3 Xrotation Yrotation Zrotation
					JOINT RightToeBase
					{
						OFFSET -0.970200 -13.225400 11.864200
						CHANNELS 3 Xrotation Yrotation Zrotation
						End Site
						{
							OFFSET 0.000000 12.319244 0.000000
						}
					}
					JOINT RFootTongue
					{
						OFFSET -1.142200 -1.059800 6.665200
						CHANNELS 3 Xrotation Yrotation Zrotation
						End Site
						{
							OFFSET 0.000000 12.319243 0.000000
						}
					}
				}
				JOINT RightPantLeg
				{
					OFFSET -0.919482 -16.533978 -2.284800
					CHANNELS 3 Xrotation Yrotation Zrotation
					End Site
					{
						OFFSET -0.350400 24.744419 0.000000
					}
				}
			}
		}
	}
	JOINT Spine
	{
		OFFSET 0.000000 7.722000 1.166200
		CHANNELS 3 Xrotation Yrotation Zrotation
		JOINT Spine1
		{
			OFFSET 0.000000 12.024101 0.248800
			CHANNELS 3 Xrotation Yrotation Zrotation
			JOINT Spine2
			{
				OFFSET 0.000000 11.502998 -0.491200
				CHANNELS 3 Xrotation Yrotation Zrotation
				JOINT Neck
				{
					OFFSET 0.000000 18.430702 -3.123100
					CHANNELS 3 Xrotation Yrotation Zrotation
					JOINT Head
					{
						OFFSET 0.000000 9.051102 1.034000
						CHANNELS 3 Xrotation Yrotation Zrotation
						JOINT HairB
						{
							OFFSET 0.208400 24.786102 24.822300
							CHANNELS 3 Xrotation Yrotation Zrotation
							End Site
							{
								OFFSET 0.000000 32.263779 0.000000
							}
						}
						JOINT HairA
						{
							OFFSET -7.081100 24.428299 23.196600
							CHANNELS 3 Xrotation Yrotation Zrotation
							End Site
							{
								OFFSET 0.000000 32.263779 0.000000
							}
						}
						JOINT Hat
						{
							OFFSET 16.728800 15.048294 -15.439601
							CHANNELS 3 Xrotation Yrotation Zrotation
							End Site
							{
								OFFSET 0.000000 32.263779 0.000000
							}
						}
					}
				}
				JOINT LeftShoulder
				{
					OFFSET 6.197800 13.665199 -4.064700
					CHANNELS 3 Xrotation Yrotation Zrotation
					JOINT LeftArm
					{
						OFFSET 7.778100 -0.187103 -1.709300
						CHANNELS 3 Xrotation Yrotation Zrotation
						JOINT LeftForeArm
						{
							OFFSET 22.049376 0.000000 0.000000
							CHANNELS 3 Xrotation Yrotation Zrotation
							JOINT LeftHand
							{
								OFFSET 23.009392 0.000000 0.000000
								CHANNELS 3 Xrotation Yrotation Zrotation
								JOINT LeftHandThumb1
								{
									OFFSET 3.507191 -2.063065 3.133727
									CHANNELS 3 Xrotation Yrotation Zrotation
									JOINT LeftHandThumb2
									{
										OFFSET 3.101337 -1.790558 1.790558
										CHANNELS 3 Xrotation Yrotation Zrotation
										JOINT LeftHandThumb3
										{
											OFFSET 3.058640 -1.765907 1.765906
											CHANNELS 3 Xrotation Yrotation Zrotation
											End Site
											{
												OFFSET -0.415260 3.926476 -0.049563
											}
										}
									}
								}
								JOINT LeftHandIndex1
								{
									OFFSET 11.334419 -0.901459 3.706815
									CHANNELS 3 Xrotation Yrotation Zrotation
									JOINT LeftHandIndex2
									{
										OFFSET 3.283112 0.000000 0.000000
										CHANNELS 3 Xrotation Yrotation Zrotation
										JOINT LeftHandIndex3
										{
											OFFSET 3.323853 0.000000 0.000000
											CHANNELS 3 Xrotation Yrotation Zrotation
											End Site
											{
												OFFSET -1.135597 3.097809 0.402452
											}
										}
									}
								}
								JOINT LeftHandMiddle1
								{
									OFFSET 11.335861 0.000000 0.000000
									CHANNELS 3 Xrotation Yrotation Zrotation
									JOINT LeftHandMiddle2
									{
										OFFSET 3.410492 0.000000 0.000000
										CHANNELS 3 Xrotation Yrotation Zrotation
										JOINT LeftHandMiddle3
										{
											OFFSET 3.312172 0.000000 0.000000
											CHANNELS 3 Xrotation Yrotation Zrotation
											End Site
											{
												OFFSET -1.150200 3.080154 0.400270
											}
										}
									}
								}
								JOINT LeftHandRing1
								{
									OFFSET 11.514786 -0.013176 -3.003090
									CHANNELS 3 Xrotation Yrotation Zrotation
									JOINT LeftHandRing2
									{
										OFFSET 3.053307 0.000000 0.000000
										CHANNELS 3 Xrotation Yrotation Zrotation
										JOINT LeftHandRing3
										{
											OFFSET 3.295807 0.000000 0.000000
											CHANNELS 3 Xrotation Yrotation Zrotation
											End Site
											{
												OFFSET -1.281006 3.013344 0.375733
											}
										}
									}
								}
								JOINT LeftHandPinky1
								{
									OFFSET 10.518692 -0.960396 -5.730441
									CHANNELS 3 Xrotation Yrotation Zrotation
									JOINT LeftHandPinky2
									{
										OFFSET 2.861649 0.000000 0.000000
										CHANNELS 3 Xrotation Yrotation Zrotation
										JOINT LeftHandPinky3
										{
											OFFSET 2.863380 0.000000 0.000000
											CHANNELS 3 Xrotation Yrotation Zrotation
											End Site
											{
												OFFSET -0.843597 2.711159 0.369971
											}
										}
									}
								}
							}
							JOINT LSleeve
							{
								OFFSET 6.676277 -0.344902 -1.011730
								CHANNELS 3 Xrotation Yrotation Zrotation
								End Site
								{
									OFFSET 0.000000 14.885353 0.000000
								}
							}
						}
					}
				}
				JOINT RightShoulder
				{
					OFFSET -6.197800 13.665199 -4.064700
					CHANNELS 3 Xrotation Yrotation Zrotation
					JOINT RightArm
					{
						OFFSET -7.778100 -0.187103 -1.709300
						CHANNELS 3 Xrotation Yrotation Zrotation
						JOINT RightForeArm
						{
							OFFSET -22.049376 0.000000 0.000000
							CHANNELS 3 Xrotation Yrotation Zrotation
							JOINT RightHand
							{
								OFFSET -23.009392 0.000000 0.000000
								CHANNELS 3 Xrotation Yrotation Zrotation
								JOINT RightHandThumb1
								{
									OFFSET -3.507191 -2.063065 3.133727
									CHANNELS 3 Xrotation Yrotation Zrotation
									JOINT RightHandThumb2
									{
										OFFSET -3.101337 -1.790558 1.790558
										CHANNELS 3 Xrotation Yrotation Zrotation
										JOINT RightHandThumb3
										{
											OFFSET -3.058640 -1.765907 1.765906
											CHANNELS 3 Xrotation Yrotation Zrotation
											End Site
											{
												OFFSET 0.415260 3.926476 -0.049563
											}
										}
									}
								}
								JOINT RightHandIndex1
								{
									OFFSET -11.334419 -0.901459 3.706815
									CHANNELS 3 Xrotation Yrotation Zrotation
									JOINT RightHandIndex2
									{
										OFFSET -3.283112 0.000000 0.000000
										CHANNELS 3 Xrotation Yrotation Zrotation
										JOINT RightHandIndex3
										{
											OFFSET -3.323853 0.000000 0.000000
											CHANNELS 3 Xrotation Yrotation Zrotation
											End Site
											{
												OFFSET 1.135597 3.097809 0.402452
											}
										}
									}
								}
								JOINT RightHandMiddle1
								{
									OFFSET -11.335861 0.000000 0.000000
									CHANNELS 3 Xrotation Yrotation Zrotation
									JOINT RightHandMiddle2
									{
										OFFSET -3.410492 0.000000 0.000000
										CHANNELS 3 Xrotation Yrotation Zrotation
										JOINT RightHandMiddle3
										{
											OFFSET -3.312172 0.000000 0.000000
											CHANNELS 3 Xrotation Yrotation Zrotation
											End Site
											{
												OFFSET 1.150200 3.080154 0.400270
											}
										}
									}
								}
								JOINT RightHandRing1
								{
									OFFSET -11.514786 -0.013176 -3.003090
									CHANNELS 3 Xrotation Yrotation Zrotation
									JOINT RightHandRing2
									{
										OFFSET -3.053307 0.000000 0.000000
										CHANNELS 3 Xrotation Yrotation Zrotation
										JOINT RightHandRing3
										{
											OFFSET -3.295807 0.000000 0.000000
											CHANNELS 3 Xrotation Yrotation Zrotation
											End Site
											{
												OFFSET 1.281006 3.013344 0.375733
											}
										}
									}
								}
								JOINT RightHandPinky1
								{
									OFFSET -10.518692 -0.960396 -5.730441
									CHANNELS 3 Xrotation Yrotation Zrotation
									JOINT RightHandPinky2
									{
										OFFSET -2.861649 0.000000 0.000000
										CHANNELS 3 Xrotation Yrotation Zrotation
										JOINT RightHandPinky3
										{
											OFFSET -2.863380 0.000000 0.000000
											CHANNELS 3 Xrotation Yrotation Zrotation
											End Site
											{
												OFFSET 0.843597 2.711159 0.369971
											}
										}
									}
								}
							}
							JOINT RSleeve
							{
								OFFSET -6.676277 -0.344902 -1.011730
								CHANNELS 3 Xrotation Yrotation Zrotation
								End Site
								{
									OFFSET 0.000000 14.885353 0.000000
								}
							}
						}
					}
				}
				JOINT Backpack
				{
					OFFSET 0.000000 -2.471497 36.677502
					CHANNELS 3 Xrotation Yrotation Zrotation
					End Site
					{
						OFFSET 0.000000 20.427315 0.000000
					}
				}
				JOINT Hood
				{
					OFFSET 0.000000 18.754097 -10.431000
					CHANNELS 3 Xrotation Yrotation Zrotation
					JOINT Hood1
					{
						OFFSET 0.000000 -5.011002 -7.685901
						CHANNELS 3 Xrotation Yrotation Zrotation
						End Site
						{
							OFFSET 0.000000 9.175140 0.000000
						}
					}
				}
				JOINT LHoodieString
				{
					OFFSET 5.250500 16.397697 3.089900
					CHANNELS 3 Xrotation Yrotation Zrotation
					JOINT LHoodieString1
					{
						OFFSET 0.257700 -6.364304 3.694600
						CHANNELS 3 Xrotation Yrotation Zrotation
						JOINT LHoodieString2
						{
							OFFSET 0.000000 -9.643799 2.679100
							CHANNELS 3 Xrotation Yrotation Zrotation
							End Site
							{
								OFFSET 0.000000 10.009018 0.000000
							}
						}
					}
				}
				JOINT RHoodieString
				{
					OFFSET -5.250500 16.397697 3.089900
					CHANNELS 3 Xrotation Yrotation Zrotation
					JOINT RHoodieString1
					{
						OFFSET -0.257700 -6.364304 3.694600
						CHANNELS 3 Xrotation Yrotation Zrotation
						JOINT RHoodieString2
						{
							OFFSET 0.000000 -9.643799 2.679100
							CHANNELS 3 Xrotation Yrotation Zrotation
							End Site
							{
								OFFSET 0.000000 10.009018 0.000000
							}
						}
					}
				}
			}
			JOINT LBackpack_Strap
			{
				OFFSET 15.223200 -7.719803 -6.610900
				CHANNELS 3 Xrotation Yrotation Zrotation
				End Site
				{
					OFFSET 0.000000 16.040596 0.000000
				}
			}
			JOINT RBackpack_Strap
			{
				OFFSET -15.223000 -7.719803 -6.610900
				CHANNELS 3 Xrotation Yrotation Zrotation
				End Site
				{
					OFFSET 0.000000 16.040596 0.000000
				}
			}
		}
	}
	JOINT BoyFacialAnim_Joint
	{
		OFFSET 1.000000 -82.208099 -1.550900
		CHANNELS 3 Xrotation Yrotation Zrotation
		End Site
		{
			OFFSET 0.000000 30.012791 0.000000
		}
	}
}
MOTION
Frames: 4
Frame Time: 0.016667
4.650975 80.508728 4.788561 -0.188897 19.092735 6.204705 0.000000 0.000001 -0.000000 -19.401198 -6.209734 -5.444538 21.132902 0.761230 -4.527744 -2.133756 10.395675 1.141054 0.000000 -0.000000 -0.000000 0.000000 -0.000000 -0.000000 -0.000000 -0.000000 0.000000 0.353767 -10.744248 -14.645158 24.067669 -22.091630 1.260005 -3.658148 -30.807852 22.578474 0.000000 -0.000000 -0.000000 0.000000 -0.000000 -0.000000 0.000002 -0.000003 -0.000001 0.073757 6.848778 10.804033 8.389053 6.747483 0.422352 0.206957 6.614087 0.368022 -13.227443 -19.480628 1.743817 5.179460 -17.358825 -2.364414 -0.000001 0.000000 -0.000002 -0.000001 0.000000 -0.000002 -0.000001 0.000000 -0.000002 -0.154067 9.312178 20.132346 -63.723384 6.157087 -31.462464 318.740804 -20.602969 373.295820 -53.062756 28.769730 30.735564 17.551619 -5.699197 -12.932302 10.850467 26.127712 8.644841 0.000002 0.000000 -0.000001 13.980916 1.201553 -55.004381 0.370809 1.161736 -65.441880 0.000000 0.000001 -0.000002 7.504740 1.174498 -63.778510 1.807815 1.475671 -64.567930 0.000002 -0.000002 0.000002 8.574323 2.179133 -75.148999 -0.207657 1.009284 -57.855049 0.000001 -0.000003 -0.000001 10.030081 13.637029 -84.750244 0.877108 0.062325 -64.595517 0.000000 0.000000 -0.000002 -0.000000 -0.000001 0.000003 5.429958 9.442471 5.676214 15.856523 -66.495238 55.369915 -0.249014 19.228904 37.981535 72.680507 -1.056087 4.143540 15.788536 -2.734541 -17.205815 -2.832769 -29.366593 12.741429 0.000000 0.000004 -0.000001 3.460509 -3.220971 22.317853 -2.139066 -2.479446 34.133850 -0.000001 0.000001 0.000002 -1.981747 -5.708784 28.547064 0.291802 -5.115416 57.918495 -0.000000 -0.000001 0.000001 -3.258532 -8.570316 35.335687 4.048556 -4.073907 65.874497 -0.000001 -0.000002 -0.000002 -5.950084 -17.426365 53.146825 10.727133 -2.565961 58.259430 -0.000001 -0.000001 -0.000002 -0.000000 -0.000001 -0.000000 -0.000000 -0.000000 0.000001 -0.000000 -0.000000 0.000001 -0.000000 -0.000000 0.000001 -0.000000 -0.000000 0.000001 -0.000000 -0.000000 -0.000000 -0.000000 0.000003 -0.000001 -0.000000 -0.000000 0.000001 -0.000000 -0.000000 -0.000000 -0.000000 0.000003 -0.000001 -0.000001 0.000002 0.000001 -0.000001 0.000002 0.000001 0.000000 0.000001 -0.000000 
4.634885 80.375519 5.003915 0.419961 23.889522 5.433919 -0.000000 -0.000001 0.000000 -21.435408 -9.073637 -5.966085 22.140944 -0.246589 -4.794412 -2.113006 9.590274 1.311618 -0.000000 -0.000002 0.000000 -0.000000 -0.000002 0.000000 -0.000000 0.000000 -0.000000 1.331495 -15.340613 -13.517492 22.411592 -21.466728 0.886627 -4.101015 -29.300234 22.518907 -0.000000 -0.000001 0.000000 -0.000000 -0.000001 0.000000 -0.000001 -0.000001 -0.000001 -1.156741 7.149883 10.867623 7.340187 7.401385 -0.347059 0.687531 7.224086 -0.473163 -14.981685 -22.379388 3.474323 6.383154 -19.162915 -1.752122 -0.000001 0.000000 0.000000 -0.000001 0.000000 0.000000 -0.000001 0.000000 0.000000 -0.958325 11.589824 16.054732 -66.492103 6.731932 -32.420917 309.931445 -20.341210 375.357171 -52.110136 22.279607 29.101821 17.551624 -5.699196 -12.932298 10.850461 26.127717 8.644839 0.000004 -0.000002 -0.000003 13.980922 1.201549 -55.004381 0.370807 1.161743 -65.441880 -0.000001 0.000000 -0.000000 7.504744 1.174493 -63.778503 1.807819 1.475668 -64.567937 -0.000000 0.000001 -0.000003 8.574327 2.179128 -75.149006 -0.207656 1.009282 -57.855056 -0.000000 0.000000 -0.000000 10.030091 13.637028 -84.750244 0.877103 0.062322 -64.595517 -0.000001 0.000001 0.000002 0.000001 0.000002 0.000001 5.228957 9.723377 6.084444 10.668942 -68.209418 51.667564 -0.500532 18.866880 38.212385 79.163614 0.444241 3.903874 15.788512 -2.734506 -17.205808 -2.817463 -29.403695 12.657789 0.000000 -0.000003 0.000001 3.434951 -3.235367 22.125541 -2.139755 -2.479395 33.905073 -0.000000 -0.000001 0.000005 -1.981963 -5.708348 28.331285 0.291636 -5.115292 57.471623 -0.000000 -0.000000 -0.000000 -3.259474 -8.570101 34.996503 4.048361 -4.073856 65.399307 -0.000000 -0.000002 0.000000 -6.000658 -17.333615 52.703891 10.727038 -2.565885 57.922893 -0.000000 0.000000 0.000002 -0.000000 -0.000000 0.000000 -0.000000 -0.000000 -0.000000 -0.000000 -0.000000 -0.000000 -0.000000 -0.000000 -0.000000 -0.000000 -0.000000 -0.000000 -0.000000 -0.000000 -0.000002 -0.000000 -0.000000 -0.000002 -0.000000 -0.000000 -0.000000 -0.000000 -0.000000 -0.000002 -0.000000 -0.000000 -0.000002 -0.000000 0.000000 -0.000001 -0.000000 0.000000 -0.000001 -0.000000 -0.000001 0.000000 
4.613946 80.233551 5.180807 1.102453 28.048903 4.707900 -0.000000 0.000002 -0.000000 -23.394969 -11.779871 -6.665934 23.040537 -0.787663 -5.006898 -2.073091 8.832947 1.362865 0.000000 0.000002 -0.000000 0.000000 0.000002 -0.000000 -0.000000 -0.000001 0.000000 2.111679 -20.146808 -12.634675 20.855457 -19.955825 0.603969 -4.817513 -27.609197 22.119704 -0.000000 -0.000001 0.000000 -0.000000 -0.000001 0.000000 -0.000002 -0.000000 -0.000001 -2.197492 7.476171 10.585595 6.409503 8.037283 -1.007987 1.207254 7.779495 -1.226572 -16.665347 -24.736642 4.961177 7.292998 -20.429634 -1.343615 0.000001 0.000000 -0.000000 0.000001 0.000000 -0.000000 0.000001 0.000000 -0.000000 -1.386120 13.153981 11.553611 -68.111425 6.494231 -33.152417 305.017233 -21.210143 374.224125 -51.626231 18.333264 27.120513 17.551626 -5.699201 -12.932296 10.850466 26.127710 8.644844 0.000001 0.000002 0.000001 13.980918 1.201545 -55.004381 0.370803 1.161742 -65.441873 -0.000000 0.000002 -0.000001 7.504745 1.174494 -63.778503 1.807816 1.475667 -64.567943 -0.000001 -0.000001 -0.000002 8.574326 2.179130 -75.149006 -0.207659 1.009282 -57.855049 -0.000003 -0.000003 -0.000001 10.030090 13.637030 -84.750237 0.877100 0.062325 -64.595517 -0.000000 -0.000000 0.000003 0.000001 0.000000 0.000001 5.052231 10.207462 6.320873 6.135793 -67.294534 48.041177 0.327628 18.396966 37.774546 83.008580 -0.368277 3.065869 15.788544 -2.734530 -17.205820 -2.808251 -29.432661 12.569115 -0.000001 -0.000002 0.000000 3.396524 -3.255159 21.917858 -2.140526 -2.479421 33.642227 -0.000001 0.000000 0.000005 -1.982217 -5.708100 28.088029 0.291449 -5.115157 56.979139 -0.000001 0.000000 0.000002 -3.260371 -8.569921 34.620094 4.048114 -4.073743 64.869100 -0.000001 -0.000001 0.000000 -6.047894 -17.233595 52.206459 10.726900 -2.565861 57.544822 -0.000001 -0.000001 -0.000000 0.000000 -0.000000 0.000000 -0.000000 -0.000001 -0.000001 -0.000000 -0.000001 -0.000001 -0.000000 -0.000001 -0.000001 -0.000000 -0.000001 -0.000001 -0.000000 -0.000001 -0.000000 -0.000000 0.000003 -0.000001 -0.000000 -0.000001 -0.000001 -0.000000 -0.000001 -0.000000 -0.000000 0.000003 -0.000001 -0.000000 -0.000000 -0.000000 -0.000000 -0.000000 -0.000000 -0.000000 0.000002 -0.000000 
4.581323 80.108627 5.307583 1.758727 31.002113 4.152463 -0.000000 -0.000002 0.000000 -25.081956 -14.303268 -7.500839 23.650903 -1.500692 -5.200962 -2.057869 9.299326 1.332581 -0.000000 0.000002 0.000000 -0.000000 0.000002 0.000000 -0.000000 -0.000000 0.000000 2.614576 -23.513247 -11.933253 19.768565 -18.951297 0.423167 -5.443784 -26.474262 21.773441 -0.000000 0.000000 0.000000 -0.000000 0.000000 0.000000 0.000001 0.000001 0.000001 -3.103486 7.820156 10.066950 5.554689 8.658308 -1.589353 1.738243 8.299233 -1.912931 -18.260205 -26.743047 6.305352 8.037613 -21.371749 -1.064211 0.000000 0.000000 0.000002 0.000000 0.000000 0.000002 0.000000 0.000000 0.000002 -1.577758 14.389610 6.973790 -69.478016 6.137856 -33.977951 302.849468 -21.535475 372.111629 -50.465484 13.830767 25.019659 17.551624 -5.699206 -12.932298 10.850467 26.127717 8.644840 0.000002 -0.000003 0.000000 13.980919 1.201545 -55.004381 0.370807 1.161742 -65.441880 0.000000 -0.000002 0.000001 7.504742 1.174489 -63.778503 1.807814 1.475670 -64.567937 -0.000001 0.000001 0.000000 8.574327 2.179129 -75.148992 -0.207657 1.009280 -57.855056 0.000001 0.000001 -0.000000 10.030089 13.637027 -84.750244 0.877110 0.062322 -64.595517 0.000001 0.000001 -0.000000 0.000001 0.000000 -0.000001 4.894001 10.841097 6.313581 4.878247 -64.300876 47.139104 1.435488 17.723760 37.243536 83.415837 -3.115091 2.073301 15.788506 -2.734549 -17.205807 -2.805460 -29.452766 12.475393 0.000003 0.000002 0.000000 3.344291 -3.280468 21.694662 -2.141386 -2.479334 33.343904 0.000001 -0.000001 0.000003 -1.982598 -5.707911 27.816417 0.291201 -5.114998 56.439998 0.000001 0.000001 0.000002 -3.261285 -8.569727 34.205560 4.047813 -4.073586 64.282435 0.000000 0.000000 0.000002 -6.091006 -17.126358 51.652909 10.726731 -2.565704 57.123816 -0.000001 -0.000000 0.000002 0.000002 -0.000000 -0.000001 0.000000 -0.000001 -0.000000 0.000000 -0.000001 -0.000000 0.000000 -0.000001 -0.000000 0.000000 -0.000001 -0.000000 0.000000 -0.000001 -0.000001 -0.000001 -0.000003 -0.000001 0.000000 -0.000001 -0.000000 0.000000 -0.000001 -0.000001 -0.000001 -0.000003 -0.000001 -0.000000 -0.000002 0.000001 -0.000000 -0.000002 0.000001 -0.000000 -0.000002 0.000000 
